<svg width="600" height="600" viewBox="0 0 600 600" fill="none" xmlns="http://www.w3.org/2000/svg">
<g clip-path="url(#clip0_4941_64703)">
<path fill-rule="evenodd" clip-rule="evenodd" d="M0 0H600V600H0V0ZM171.792 68.8251C202.104 15.8384 282.197 34.7046 346.812 49.9249L346.815 49.9255C351.016 50.9153 355.153 51.8896 359.206 52.8278C367.726 54.7999 376.687 56.7109 385.898 58.6752C454.011 73.2004 535.784 90.6385 553.607 157.205C566.1 203.863 532.774 232.052 497.799 261.634C471.974 283.478 445.25 306.082 435.412 337.443C428.65 358.999 438.927 387.619 448.655 414.711C460.763 448.43 472.02 479.781 448.518 492.196C424.77 504.742 402.493 479.216 378.752 452.012C358.836 429.191 337.889 405.189 314.178 401.487C283.461 396.692 251.219 415.595 220.945 433.345C181.127 456.69 144.713 478.039 119.648 440.852C95.5313 405.072 128.501 381.064 164.721 354.691C194.325 333.134 226.099 309.996 230.646 277.558C235.208 245.009 215.744 210.333 196.858 176.687C174.984 137.717 153.885 100.128 171.792 68.8251ZM166.118 201.893C155.443 181.357 143.964 159.274 122.535 160.018C104.319 160.651 96.1495 178.312 87.8382 196.279C84.1919 204.162 80.5184 212.103 75.9575 218.691C72.1941 224.127 67.4311 229.251 62.7045 234.337C51.3674 246.534 40.2392 258.507 43.6135 274.016C47.9152 293.788 69.704 301.605 89.3726 308.663C91.6401 309.476 93.8794 310.28 96.0606 311.09C113.895 317.717 132.857 321.394 150.232 313.636C168.26 305.586 182.144 289.896 186.672 270.631C191.239 251.203 183.348 232.562 173.343 215.307C170.906 211.103 168.533 206.538 166.119 201.894L166.118 201.894L166.118 201.893ZM349.924 544.958C335.839 567.779 304.976 563.218 278.464 558.987C275.346 558.489 272.137 558.018 268.883 557.541C240.598 553.391 208.895 548.74 204.27 521.715C198.822 489.883 230.996 467.536 260.605 454.641C286.653 443.296 317.209 443.604 337.202 463.82C358.5 485.356 365.813 519.215 349.924 544.958ZM491.87 322.325C477.845 335.773 461.729 351.588 468.742 369.685C476.653 390.1 499.384 400.674 521.115 397.795C541.514 395.092 555.042 377.596 559.877 357.611C565.373 334.893 566.537 306.566 545.791 295.802C528.177 286.662 511.642 302.922 496.89 317.428C495.193 319.097 493.519 320.743 491.87 322.325Z" fill="white"/>
</g>
<defs>
<clipPath id="clip0_4941_64703">
<rect width="600" height="600" fill="white"/>
</clipPath>
</defs>
</svg>
