<svg width="600" height="600" viewBox="0 0 600 600" fill="none" xmlns="http://www.w3.org/2000/svg">
<g clip-path="url(#clip0_4941_64728)">
<path fill-rule="evenodd" clip-rule="evenodd" d="M0 0H600V600H0V0ZM146.281 85.6261C146.942 66.2589 178.945 56.917 206.611 49.0819C209.864 48.1607 213.189 47.1874 216.561 46.2004L216.563 46.2C245.875 37.6204 278.728 28.004 298.275 42.5819C321.298 59.7522 303.111 85.9293 282.08 105.367C263.578 122.467 234.25 134.268 203.854 129.85C171.473 125.143 145.535 107.475 146.281 85.6261ZM385.576 542.649C404.049 537.516 425.446 531.304 427.809 512.299C430.475 490.859 415.662 471.046 395.43 463.392C376.439 456.208 356.506 465.09 342.963 480.2C327.57 497.374 313.319 521.448 326.319 540.499C337.355 556.674 359.324 550.271 378.924 544.558C381.18 543.901 383.403 543.253 385.576 542.649ZM449.772 67.8094C484.879 92.9141 468.731 136.88 451.672 183.326C440.993 212.401 429.957 242.447 430.914 269.448C431.57 287.949 440.791 306.002 449.752 323.547C462.393 348.295 474.517 372.032 461.352 394.584C448.12 417.251 421.365 418.428 393.473 419.655C373.89 420.516 353.746 421.402 337.327 429.768C310.494 443.439 287.615 467.654 265.3 491.274C229.422 529.249 195.001 565.682 147.948 554.26C74.051 536.322 54.7723 434.991 47.1545 359.331C40.4454 292.695 60.0169 221.202 109.917 176.533C134.553 154.48 167.283 157.2 201.029 160.004C225.517 162.039 250.541 164.119 273.395 156.807C299.024 148.608 323.152 126.953 346.381 106.104C382.249 73.9104 415.974 43.641 449.772 67.8094ZM492.133 317.399C502.852 336.51 514.378 357.059 526.887 353.589C537.52 350.639 538.559 331.995 539.617 313.029C540.081 304.709 540.548 296.326 541.83 289.179C542.889 283.282 544.604 277.568 546.307 271.897C550.392 258.297 554.401 244.946 549.078 229.918C542.291 210.758 527.732 205.74 514.589 201.21C513.074 200.688 511.578 200.172 510.114 199.642C498.148 195.307 486.149 194.056 477.542 204.001C468.612 214.319 463.771 231.725 465.229 251.503C466.699 271.449 475.365 289.025 484.983 304.949C487.326 308.829 489.709 313.078 492.133 317.399Z" fill="white"/>
</g>
<defs>
<clipPath id="clip0_4941_64728">
<rect width="600" height="600" fill="white"/>
</clipPath>
</defs>
</svg>
