<svg width="312" height="48" viewBox="0 0 312 48" fill="none" xmlns="http://www.w3.org/2000/svg">
<rect x="244.683" y="1.32292" width="65.9942" height="44.1542" rx="6.67708" fill="white" stroke="#D9D9D9" stroke-width="2.64583"/>
<path fill-rule="evenodd" clip-rule="evenodd" d="M303.637 18.7409C305.768 18.7409 306.94 19.6839 306.94 21.4649C307.046 22.8269 306.087 23.9793 304.809 24.1889L307.685 28.0653H305.448L302.998 24.2936H302.784V28.0653H300.973V18.7409H303.637ZM302.784 23.0366H303.317C304.489 23.0366 305.022 22.5128 305.022 21.5699C305.022 20.7317 304.489 20.2079 303.317 20.2079H302.784V23.0366ZM294.687 28.0654H299.801V26.4939H296.498V23.9794H299.695V22.4079H296.498V20.3126H299.801V18.7411H294.687V28.0654V28.0654ZM289.36 25.0271L286.909 18.7411H284.991L288.934 28.2749H289.893L293.835 18.7411H291.917L289.36 25.0271V25.0271ZM267.731 23.4552C267.731 26.0744 269.862 28.2745 272.526 28.2745C273.378 28.2745 274.124 28.065 274.87 27.7507V25.6553C274.337 26.2839 273.591 26.703 272.739 26.703C271.034 26.703 269.649 25.4458 269.649 23.7695V23.56C269.543 21.8837 270.928 20.4169 272.632 20.3122C273.485 20.3122 274.337 20.7313 274.87 21.3599V19.2645C274.23 18.8454 273.378 18.7407 272.632 18.7407C269.862 18.5311 267.731 20.7313 267.731 23.4552V23.4552ZM264.428 22.3029C263.363 21.8838 263.043 21.6743 263.043 21.1505C263.15 20.5219 263.683 19.998 264.322 20.1028C264.855 20.1028 265.387 20.4171 265.813 20.8362L266.772 19.579C266.027 18.9503 265.068 18.5313 264.109 18.5313C262.617 18.4265 261.339 19.579 261.232 21.0457V21.1505C261.232 22.4077 261.765 23.1411 263.469 23.6649C263.896 23.7697 264.322 23.9792 264.748 24.1887C265.068 24.3983 265.281 24.7126 265.281 25.1316C265.281 25.865 264.641 26.4936 264.002 26.4936H263.896C263.043 26.4936 262.297 25.9698 261.978 25.2364L260.806 26.3888C261.445 27.5413 262.724 28.1699 264.002 28.1699C265.707 28.2747 267.092 27.0175 267.199 25.3412V25.0269C267.092 23.7697 266.559 23.1411 264.428 22.3029V22.3029ZM258.249 28.0654H260.06V18.7411H258.249V28.0654V28.0654ZM249.832 18.7409H252.495H253.028C255.585 18.8457 257.61 20.9411 257.503 23.4555C257.503 24.8175 256.864 26.0747 255.798 27.0176C254.839 27.751 253.667 28.17 252.495 28.0653H249.832V18.7409ZM252.176 26.4939C253.028 26.5987 253.987 26.2844 254.626 25.7605C255.266 25.1319 255.585 24.2938 255.585 23.3509C255.585 22.5127 255.266 21.6746 254.626 21.046C253.987 20.5221 253.028 20.2078 252.176 20.3126H251.643V26.4939H252.176Z" fill="black"/>
<path fill-rule="evenodd" clip-rule="evenodd" d="M280.304 18.5247C277.64 18.5247 275.402 20.62 275.402 23.344C275.402 25.9632 277.533 28.1633 280.304 28.268C283.074 28.3728 285.205 26.1727 285.311 23.4487C285.205 20.7248 283.074 18.5247 280.304 18.5247V18.5247Z" fill="#FD6020"/>
<path d="M270 43.8H303.64C306.954 43.8 309.64 41.1137 309.64 37.8V32L270 43.8Z" fill="#FD6020"/>
<rect x="1.32292" y="1.32292" width="65.9942" height="44.1542" rx="6.67708" fill="white" stroke="#D9D9D9" stroke-width="2.64583"/>
<path fill-rule="evenodd" clip-rule="evenodd" d="M20.8377 31.7038H16.6794L13.5612 19.8753C13.4132 19.3312 13.099 18.8502 12.6367 18.6235C11.4831 18.0538 10.2119 17.6003 8.82514 17.3717V16.9163H15.5238C16.4483 16.9163 17.1416 17.6003 17.2572 18.3948L18.8751 26.9271L23.0313 16.9163H27.074L20.8377 31.7038ZM29.3853 31.7038H25.4581L28.6919 16.9163H32.619L29.3853 31.7038ZM37.6998 21.0128C37.8153 20.2164 38.5087 19.761 39.3177 19.761C40.5889 19.6467 41.9736 19.8753 43.1292 20.4431L43.8226 17.2593C42.667 16.8039 41.3958 16.5752 40.2422 16.5752C36.4306 16.5752 33.6571 18.6235 33.6571 21.4663C33.6571 23.6289 35.6217 24.7644 37.0084 25.4485C38.5087 26.1306 39.0865 26.586 38.971 27.2681C38.971 28.2913 37.8153 28.7467 36.6617 28.7467C35.275 28.7467 33.8882 28.4056 32.619 27.8359L31.9257 31.0217C33.3124 31.5894 34.8127 31.8181 36.1995 31.8181C40.4733 31.9305 43.1292 29.8842 43.1292 26.8127C43.1292 22.9448 37.6998 22.7181 37.6998 21.0128V21.0128ZM56.8732 31.7038L53.755 16.9163H50.4057C49.7123 16.9163 49.0189 17.3717 48.7878 18.0538L43.0137 31.7038H47.0564L47.8633 29.5431H52.8305L53.2927 31.7038H56.8732ZM50.9835 20.8986L52.1371 26.4718H48.9033L50.9835 20.8986Z" fill="#172B85"/>
<rect x="162.523" y="1.32292" width="65.9942" height="44.1542" rx="6.67708" fill="#1F72CD" stroke="#D9D9D9" stroke-width="2.64583"/>
<path fill-rule="evenodd" clip-rule="evenodd" d="M173.506 16.5752L167.083 30.7063H174.772L175.725 28.4533H177.903L178.856 30.7063H187.319V28.9867L188.073 30.7063H192.45L193.204 28.9504V30.7063H210.804L212.944 28.5118L214.948 30.7063L223.988 30.7245L217.545 23.6802L223.988 16.5752H215.088L213.005 18.7292L211.064 16.5752H191.918L190.274 20.2226L188.591 16.5752H180.919V18.2363L180.066 16.5752H173.506ZM199.787 18.5816H209.894L212.985 21.9016L216.176 18.5816H219.267L214.57 23.6779L219.267 28.7156H216.035L212.944 25.357L209.737 28.7156H199.787V18.5816ZM202.283 22.5324V20.6814V20.6796H208.589L211.341 23.6399L208.467 26.6164H202.283V24.5956H207.796V22.5324H202.283ZM174.993 18.5816H178.741L183 28.164V18.5816H187.106L190.396 25.4521L193.428 18.5816H197.513V28.7216H195.028L195.007 20.7759L191.384 28.7216H189.16L185.516 20.7759V28.7216H180.403L179.434 26.4483H174.197L173.229 28.7196H170.49L174.993 18.5816ZM175.091 24.3468L176.816 20.2972L178.54 24.3468H175.091Z" fill="white"/>
<rect x="81.4029" y="1.32292" width="65.9942" height="44.1542" rx="6.67708" fill="white" stroke="#D9D9D9" stroke-width="2.64583"/>
<path fill-rule="evenodd" clip-rule="evenodd" d="M114.89 33.4561C112.553 35.4612 109.522 36.6716 106.21 36.6716C98.8189 36.6716 92.8274 30.645 92.8274 23.2108C92.8274 15.7766 98.8189 9.75 106.21 9.75C109.522 9.75 112.553 10.9605 114.89 12.9656C117.227 10.9605 120.258 9.75005 123.571 9.75005C130.962 9.75005 136.953 15.7767 136.953 23.2109C136.953 30.6451 130.962 36.6717 123.571 36.6717C120.258 36.6717 117.227 35.4612 114.89 33.4561Z" fill="#ED0006"/>
<path fill-rule="evenodd" clip-rule="evenodd" d="M114.89 33.456C117.768 30.9871 119.592 27.3133 119.592 23.2108C119.592 19.1084 117.768 15.4346 114.89 12.9656C117.227 10.9605 120.258 9.75 123.571 9.75C130.962 9.75 136.953 15.7766 136.953 23.2108C136.953 30.645 130.962 36.6717 123.571 36.6717C120.258 36.6717 117.227 35.4612 114.89 33.456Z" fill="#F9A000"/>
<path fill-rule="evenodd" clip-rule="evenodd" d="M114.89 33.4561C117.768 30.9872 119.592 27.3134 119.592 23.211C119.592 19.1086 117.768 15.4348 114.89 12.9658C112.013 15.4348 110.188 19.1086 110.188 23.211C110.188 27.3134 112.013 30.9872 114.89 33.4561Z" fill="#FF5E00"/>
</svg>
