<svg width="304" height="80" viewBox="0 0 304 80" fill="none" xmlns="http://www.w3.org/2000/svg">
<g clip-path="url(#clip0_915_6557)">
<path d="M56.8348 17.592C55.6393 15.8603 54.2857 14.3025 52.8129 12.9096C42.8876 3.51826 27.3422 1.91623 15.5327 9.87042C1.96704 19.0026 -1.53319 37.2698 7.71232 50.6691C8.65446 52.0326 9.71287 53.2695 10.8339 54.4239C20.6996 64.6132 36.8322 66.5951 49.0175 58.3936C62.5801 49.2556 66.0803 30.9913 56.8348 17.592Z" fill="#223949"/>
<path d="M48.8658 58.3907C62.4314 49.2556 65.9317 30.9913 56.6832 17.592C55.4876 15.8604 54.134 14.3025 52.6612 12.9096C46.9815 7.53514 39.4623 4.7257 31.8566 4.7846V63.4677C37.7151 63.5296 43.6542 61.901 48.8658 58.3907Z" fill="#1C313D"/>
<path d="M53.1994 13.2653C41.4909 1.70031 22.5089 1.70031 10.8003 13.2653C-0.935562 24.8553 -0.935562 43.6472 10.8003 55.2392L30.6745 74.8697C31.4061 75.5923 32.5936 75.5923 33.3253 74.8697L53.1994 55.2392C64.9334 43.6472 64.9334 24.8553 53.1994 13.2653ZM45.1121 52.7349C35.7687 59.0246 23.397 57.5058 15.832 49.6915C14.9731 48.8045 14.1613 47.8577 13.4374 46.8123C6.34582 36.5382 9.03184 22.5308 19.4335 15.5261C28.4912 9.42767 40.411 10.6566 48.023 17.8584C49.1518 18.927 50.1906 20.1211 51.1081 21.4487C58.1978 31.7228 55.5138 45.7302 45.1121 52.7349Z" fill="#EE6148"/>
<path d="M48.3897 23.2776C47.6052 22.1413 46.7171 21.1191 45.7507 20.2052C39.2381 14.043 29.0379 12.9918 21.289 18.211C12.3878 24.2031 10.0911 36.1893 16.1576 44.9814C16.7758 45.8761 17.4703 46.6876 18.2058 47.4451C24.6793 54.1309 35.2648 55.4314 43.2603 50.0499C52.1595 44.0539 54.4562 32.0696 48.3897 23.2776Z" fill="#5E9BD3"/>
<path d="M43.1607 50.048C52.0619 44.0539 54.3587 32.0696 48.2902 23.2776C47.5057 22.1414 46.6175 21.1192 45.6511 20.2052C41.9244 16.6787 36.9905 14.8352 32 14.8739V53.3793C35.8441 53.4199 39.7411 52.3513 43.1607 50.048Z" fill="#4B85B0"/>
<path d="M30.3547 43.1515V36.4367C30.3547 35.5401 31.0922 34.8116 31.9999 34.8116V32.7015C29.9145 32.7015 28.2184 34.3769 28.2184 36.4367V43.1515H23.2885V31.231L31.9999 23.7394V20.5105L20.8235 30.1219L16.594 33.7585H20.8216V45.5882H31.998V43.1535H30.3547V43.1515Z" fill="white"/>
<path d="M43.1784 33.7585H47.4059L43.1784 30.1219L42.5308 29.5654L32 20.5105V23.7394L39.6863 30.3499L40.7114 31.231V43.1515H35.7815V36.4367C35.7815 34.3768 34.0854 32.7015 32 32.7015V34.8116C32.9077 34.8116 33.6453 35.5401 33.6453 36.4367V43.1515H32V45.5863H43.1764V33.7585H43.1784Z" fill="#ECECED"/>
<path d="M31.9996 27.1848C31.0919 27.1848 30.3563 27.9114 30.3563 28.808C30.3563 29.7046 31.0919 30.4311 31.9996 30.4311V27.1848Z" fill="white"/>
<path d="M33.645 28.8099C33.645 27.9133 32.9094 27.1868 32.0017 27.1868V30.435C32.9075 30.4331 33.645 29.7065 33.645 28.8099Z" fill="#ECECED"/>
<path d="M53.2005 13.2643C47.3453 7.48084 39.6727 4.59009 32 4.59009V11.6276C37.8572 11.5658 43.6498 13.7203 48.0222 17.8555C49.151 18.9241 50.1898 20.1182 51.1073 21.4457C58.1989 31.7199 55.5129 45.7273 45.1112 52.732C41.0929 55.4373 36.5152 56.6894 32 56.6256V75.4098C32.4793 75.4098 32.9586 75.2281 33.3244 74.8668L53.1986 55.2363C64.9345 43.6462 64.9345 24.8544 53.2005 13.2643Z" fill="#F04D2E"/>
</g>
<path d="M83.86 40.1306H79.1V19.7326H83.86V40.1306ZM106.157 29.9246C106.157 31.3993 105.9 32.7619 105.387 34.0126C104.883 35.2539 104.169 36.3319 103.245 37.2466C102.321 38.1519 101.205 38.8613 99.8988 39.3746C98.6014 39.8786 97.1594 40.1306 95.5728 40.1306H87.6488V19.7326H95.5728C97.1594 19.7326 98.6014 19.9893 99.8988 20.5026C101.205 21.0159 102.321 21.7253 103.245 22.6306C104.169 23.5359 104.883 24.6139 105.387 25.8646C105.9 27.1059 106.157 28.4593 106.157 29.9246ZM101.313 29.9246C101.313 28.9166 101.182 28.0066 100.921 27.1946C100.659 26.3826 100.281 25.6966 99.7868 25.1366C99.3014 24.5673 98.7041 24.1333 97.9948 23.8346C97.2854 23.5266 96.4781 23.3726 95.5728 23.3726H92.4088V36.4906H95.5728C96.4781 36.4906 97.2854 36.3413 97.9948 36.0426C98.7041 35.7346 99.3014 35.3006 99.7868 34.7406C100.281 34.1713 100.659 33.4806 100.921 32.6686C101.182 31.8566 101.313 30.9419 101.313 29.9246ZM113.046 29.6446L106.732 19.7326H111.464C111.772 19.7326 111.996 19.7746 112.136 19.8586C112.285 19.9333 112.416 20.0639 112.528 20.2506L116.588 27.1246C116.635 27.0033 116.686 26.8866 116.742 26.7746C116.807 26.6626 116.877 26.5459 116.952 26.4246L120.508 20.3206C120.741 19.9286 121.059 19.7326 121.46 19.7326H125.996L119.598 29.4346L126.136 40.1306H121.404C121.096 40.1306 120.844 40.0559 120.648 39.9066C120.461 39.7573 120.312 39.5799 120.2 39.3746L116.112 32.2346C116.037 32.4399 115.953 32.6173 115.86 32.7666L112.052 39.3746C111.94 39.5706 111.791 39.7479 111.604 39.9066C111.417 40.0559 111.184 40.1306 110.904 40.1306H106.48L113.046 29.6446ZM151.176 40.1306H146.416V31.5066H138.128V40.1306H133.368V19.7326H138.128V28.2586H146.416V19.7326H151.176V40.1306ZM161 25.3886C162.101 25.3886 163.104 25.5613 164.01 25.9066C164.915 26.2519 165.69 26.7466 166.334 27.3906C166.987 28.0346 167.491 28.8186 167.846 29.7426C168.21 30.6573 168.392 31.6886 168.392 32.8366C168.392 33.9939 168.21 35.0393 167.846 35.9726C167.491 36.8966 166.987 37.6853 166.334 38.3386C165.69 38.9826 164.915 39.4819 164.01 39.8366C163.104 40.1819 162.101 40.3546 161 40.3546C159.889 40.3546 158.876 40.1819 157.962 39.8366C157.056 39.4819 156.272 38.9826 155.61 38.3386C154.956 37.6853 154.448 36.8966 154.084 35.9726C153.729 35.0393 153.552 33.9939 153.552 32.8366C153.552 31.6886 153.729 30.6573 154.084 29.7426C154.448 28.8186 154.956 28.0346 155.61 27.3906C156.272 26.7466 157.056 26.2519 157.962 25.9066C158.876 25.5613 159.889 25.3886 161 25.3886ZM161 37.1346C161.998 37.1346 162.731 36.7846 163.198 36.0846C163.674 35.3753 163.912 34.3019 163.912 32.8646C163.912 31.4273 163.674 30.3586 163.198 29.6586C162.731 28.9586 161.998 28.6086 161 28.6086C159.973 28.6086 159.222 28.9586 158.746 29.6586C158.27 30.3586 158.032 31.4273 158.032 32.8646C158.032 34.3019 158.27 35.3753 158.746 36.0846C159.222 36.7846 159.973 37.1346 161 37.1346ZM170.774 40.1306V25.6126H173.462C173.732 25.6126 173.956 25.6733 174.134 25.7946C174.32 25.9159 174.451 26.0979 174.526 26.3406L174.764 27.1246C175.006 26.8726 175.258 26.6439 175.52 26.4386C175.781 26.2239 176.061 26.0419 176.36 25.8926C176.668 25.7339 176.994 25.6126 177.34 25.5286C177.694 25.4353 178.082 25.3886 178.502 25.3886C179.379 25.3886 180.102 25.6173 180.672 26.0746C181.25 26.5226 181.689 27.1246 181.988 27.8806C182.23 27.4326 182.524 27.0499 182.87 26.7326C183.224 26.4153 183.602 26.1586 184.004 25.9626C184.414 25.7666 184.844 25.6219 185.292 25.5286C185.749 25.4353 186.202 25.3886 186.65 25.3886C187.48 25.3886 188.218 25.5146 188.862 25.7666C189.506 26.0093 190.042 26.3686 190.472 26.8446C190.91 27.3113 191.242 27.8899 191.466 28.5806C191.69 29.2619 191.802 30.0366 191.802 30.9046V40.1306H187.462V30.9046C187.462 29.4019 186.818 28.6506 185.53 28.6506C184.942 28.6506 184.452 28.8466 184.06 29.2386C183.677 29.6213 183.486 30.1766 183.486 30.9046V40.1306H179.146V30.9046C179.146 30.0739 178.982 29.4906 178.656 29.1546C178.329 28.8186 177.848 28.6506 177.214 28.6506C176.822 28.6506 176.448 28.7393 176.094 28.9166C175.748 29.0939 175.422 29.3319 175.114 29.6306V40.1306H170.774ZM201.107 25.3886C202.068 25.3886 202.946 25.5379 203.739 25.8366C204.542 26.1353 205.228 26.5693 205.797 27.1386C206.376 27.7079 206.824 28.4079 207.141 29.2386C207.468 30.0599 207.631 30.9933 207.631 32.0386C207.631 32.3653 207.617 32.6313 207.589 32.8366C207.561 33.0419 207.51 33.2053 207.435 33.3266C207.36 33.4479 207.258 33.5319 207.127 33.5786C207.006 33.6253 206.847 33.6486 206.651 33.6486H198.279C198.419 34.8619 198.788 35.7439 199.385 36.2946C199.982 36.8359 200.752 37.1066 201.695 37.1066C202.199 37.1066 202.633 37.0459 202.997 36.9246C203.361 36.8033 203.683 36.6679 203.963 36.5186C204.252 36.3693 204.514 36.2339 204.747 36.1126C204.99 35.9913 205.242 35.9306 205.503 35.9306C205.848 35.9306 206.11 36.0566 206.287 36.3086L207.547 37.8626C207.099 38.3759 206.614 38.7959 206.091 39.1226C205.578 39.4399 205.046 39.6919 204.495 39.8786C203.954 40.0559 203.408 40.1773 202.857 40.2426C202.316 40.3173 201.798 40.3546 201.303 40.3546C200.286 40.3546 199.329 40.1913 198.433 39.8646C197.546 39.5286 196.767 39.0339 196.095 38.3806C195.432 37.7273 194.905 36.9153 194.513 35.9446C194.13 34.9739 193.939 33.8446 193.939 32.5566C193.939 31.5859 194.102 30.6666 194.429 29.7986C194.765 28.9306 195.241 28.1699 195.857 27.5166C196.482 26.8633 197.234 26.3453 198.111 25.9626C198.998 25.5799 199.996 25.3886 201.107 25.3886ZM201.191 28.3846C200.36 28.3846 199.712 28.6226 199.245 29.0986C198.778 29.5653 198.47 30.2419 198.321 31.1286H203.739C203.739 30.7833 203.692 30.4473 203.599 30.1206C203.515 29.7939 203.37 29.5046 203.165 29.2526C202.969 28.9913 202.708 28.7813 202.381 28.6226C202.054 28.4639 201.658 28.3846 201.191 28.3846ZM226.903 23.8766C226.763 24.1006 226.614 24.2686 226.455 24.3806C226.306 24.4926 226.11 24.5486 225.867 24.5486C225.653 24.5486 225.419 24.4833 225.167 24.3526C224.925 24.2126 224.645 24.0586 224.327 23.8906C224.019 23.7226 223.665 23.5733 223.263 23.4426C222.862 23.3026 222.405 23.2326 221.891 23.2326C221.005 23.2326 220.342 23.4239 219.903 23.8066C219.474 24.1799 219.259 24.6886 219.259 25.3326C219.259 25.7433 219.39 26.0839 219.651 26.3546C219.913 26.6253 220.253 26.8586 220.673 27.0546C221.103 27.2506 221.588 27.4326 222.129 27.6006C222.68 27.7593 223.24 27.9413 223.809 28.1466C224.379 28.3426 224.934 28.5759 225.475 28.8466C226.026 29.1173 226.511 29.4626 226.931 29.8826C227.361 30.3026 227.706 30.8159 227.967 31.4226C228.229 32.0199 228.359 32.7433 228.359 33.5926C228.359 34.5353 228.196 35.4173 227.869 36.2386C227.543 37.0599 227.067 37.7786 226.441 38.3946C225.825 39.0013 225.06 39.4819 224.145 39.8366C223.24 40.1819 222.209 40.3546 221.051 40.3546C220.417 40.3546 219.768 40.2893 219.105 40.1586C218.452 40.0279 217.817 39.8459 217.201 39.6126C216.585 39.3699 216.007 39.0853 215.465 38.7586C214.924 38.4319 214.453 38.0679 214.051 37.6666L215.451 35.4546C215.554 35.2866 215.699 35.1513 215.885 35.0486C216.072 34.9459 216.273 34.8946 216.487 34.8946C216.767 34.8946 217.047 34.9833 217.327 35.1606C217.617 35.3379 217.939 35.5339 218.293 35.7486C218.657 35.9633 219.073 36.1593 219.539 36.3366C220.006 36.5139 220.557 36.6026 221.191 36.6026C222.05 36.6026 222.717 36.4159 223.193 36.0426C223.669 35.6599 223.907 35.0579 223.907 34.2366C223.907 33.7606 223.777 33.3733 223.515 33.0746C223.254 32.7759 222.909 32.5286 222.479 32.3326C222.059 32.1366 221.579 31.9639 221.037 31.8146C220.496 31.6653 219.941 31.5019 219.371 31.3246C218.802 31.1379 218.247 30.9139 217.705 30.6526C217.164 30.3819 216.679 30.0319 216.249 29.6026C215.829 29.1639 215.489 28.6226 215.227 27.9786C214.966 27.3253 214.835 26.5226 214.835 25.5706C214.835 24.8053 214.989 24.0586 215.297 23.3306C215.605 22.6026 216.058 21.9539 216.655 21.3846C217.253 20.8153 217.985 20.3626 218.853 20.0266C219.721 19.6813 220.715 19.5086 221.835 19.5086C222.461 19.5086 223.067 19.5599 223.655 19.6626C224.253 19.7559 224.817 19.9006 225.349 20.0966C225.881 20.2833 226.376 20.5119 226.833 20.7826C227.3 21.0439 227.715 21.3426 228.079 21.6786L226.903 23.8766ZM236.927 25.3886C237.889 25.3886 238.766 25.5379 239.559 25.8366C240.362 26.1353 241.048 26.5693 241.617 27.1386C242.196 27.7079 242.644 28.4079 242.961 29.2386C243.288 30.0599 243.451 30.9933 243.451 32.0386C243.451 32.3653 243.437 32.6313 243.409 32.8366C243.381 33.0419 243.33 33.2053 243.255 33.3266C243.181 33.4479 243.078 33.5319 242.947 33.5786C242.826 33.6253 242.667 33.6486 242.471 33.6486H234.099C234.239 34.8619 234.608 35.7439 235.205 36.2946C235.803 36.8359 236.573 37.1066 237.515 37.1066C238.019 37.1066 238.453 37.0459 238.817 36.9246C239.181 36.8033 239.503 36.6679 239.783 36.5186C240.073 36.3693 240.334 36.2339 240.567 36.1126C240.81 35.9913 241.062 35.9306 241.323 35.9306C241.669 35.9306 241.93 36.0566 242.107 36.3086L243.367 37.8626C242.919 38.3759 242.434 38.7959 241.911 39.1226C241.398 39.4399 240.866 39.6919 240.315 39.8786C239.774 40.0559 239.228 40.1773 238.677 40.2426C238.136 40.3173 237.618 40.3546 237.123 40.3546C236.106 40.3546 235.149 40.1913 234.253 39.8646C233.367 39.5286 232.587 39.0339 231.915 38.3806C231.253 37.7273 230.725 36.9153 230.333 35.9446C229.951 34.9739 229.759 33.8446 229.759 32.5566C229.759 31.5859 229.923 30.6666 230.249 29.7986C230.585 28.9306 231.061 28.1699 231.677 27.5166C232.303 26.8633 233.054 26.3453 233.931 25.9626C234.818 25.5799 235.817 25.3886 236.927 25.3886ZM237.011 28.3846C236.181 28.3846 235.532 28.6226 235.065 29.0986C234.599 29.5653 234.291 30.2419 234.141 31.1286H239.559C239.559 30.7833 239.513 30.4473 239.419 30.1206C239.335 29.7939 239.191 29.5046 238.985 29.2526C238.789 28.9913 238.528 28.7813 238.201 28.6226C237.875 28.4639 237.478 28.3846 237.011 28.3846ZM255.966 40.1306C255.555 40.1306 255.242 40.0746 255.028 39.9626C254.822 39.8506 254.65 39.6173 254.51 39.2626L254.202 38.4646C253.838 38.7726 253.488 39.0433 253.152 39.2766C252.816 39.5099 252.466 39.7106 252.102 39.8786C251.747 40.0373 251.364 40.1539 250.954 40.2286C250.552 40.3126 250.104 40.3546 249.61 40.3546C248.947 40.3546 248.345 40.2706 247.804 40.1026C247.262 39.9253 246.8 39.6686 246.418 39.3326C246.044 38.9966 245.755 38.5813 245.55 38.0866C245.344 37.5826 245.242 37.0039 245.242 36.3506C245.242 35.8373 245.372 35.3099 245.634 34.7686C245.895 34.2273 246.348 33.7373 246.992 33.2986C247.636 32.8506 248.504 32.4773 249.596 32.1786C250.688 31.8799 252.064 31.7119 253.726 31.6746V31.0586C253.726 30.2093 253.548 29.5979 253.194 29.2246C252.848 28.8419 252.354 28.6506 251.71 28.6506C251.196 28.6506 250.776 28.7066 250.45 28.8186C250.123 28.9306 249.829 29.0566 249.568 29.1966C249.316 29.3366 249.068 29.4626 248.826 29.5746C248.583 29.6866 248.294 29.7426 247.958 29.7426C247.659 29.7426 247.402 29.6726 247.188 29.5326C246.982 29.3833 246.819 29.2013 246.698 28.9866L245.914 27.6286C246.791 26.8539 247.762 26.2799 248.826 25.9066C249.899 25.5239 251.047 25.3326 252.27 25.3326C253.147 25.3326 253.936 25.4773 254.636 25.7666C255.345 26.0466 255.942 26.4433 256.428 26.9566C256.922 27.4606 257.3 28.0626 257.562 28.7626C257.823 29.4626 257.954 30.2279 257.954 31.0586V40.1306H255.966ZM250.982 37.4846C251.542 37.4846 252.032 37.3866 252.452 37.1906C252.872 36.9946 253.296 36.6773 253.726 36.2386V34.2226C252.858 34.2599 252.144 34.3346 251.584 34.4466C251.024 34.5586 250.58 34.6986 250.254 34.8666C249.927 35.0346 249.698 35.2259 249.568 35.4406C249.446 35.6553 249.386 35.8886 249.386 36.1406C249.386 36.6353 249.521 36.9853 249.792 37.1906C250.062 37.3866 250.459 37.4846 250.982 37.4846ZM261.035 40.1306V25.6126H263.611C263.826 25.6126 264.003 25.6313 264.143 25.6686C264.293 25.7059 264.414 25.7666 264.507 25.8506C264.61 25.9253 264.685 26.0279 264.731 26.1586C264.787 26.2893 264.834 26.4479 264.871 26.6346L265.109 27.9926C265.641 27.1713 266.239 26.5226 266.901 26.0466C267.564 25.5706 268.287 25.3326 269.071 25.3326C269.734 25.3326 270.266 25.4913 270.667 25.8086L270.107 29.0006C270.07 29.1966 269.995 29.3366 269.883 29.4206C269.771 29.4953 269.622 29.5326 269.435 29.5326C269.277 29.5326 269.09 29.5139 268.875 29.4766C268.661 29.4299 268.39 29.4066 268.063 29.4066C266.925 29.4066 266.029 30.0133 265.375 31.2266V40.1306H261.035ZM283.074 29.0566C282.943 29.2153 282.817 29.3413 282.696 29.4346C282.575 29.5279 282.402 29.5746 282.178 29.5746C281.963 29.5746 281.767 29.5233 281.59 29.4206C281.422 29.3179 281.231 29.2059 281.016 29.0846C280.801 28.9539 280.549 28.8373 280.26 28.7346C279.971 28.6319 279.611 28.5806 279.182 28.5806C278.65 28.5806 278.188 28.6786 277.796 28.8746C277.413 29.0706 277.096 29.3506 276.844 29.7146C276.592 30.0786 276.405 30.5266 276.284 31.0586C276.163 31.5813 276.102 32.1739 276.102 32.8366C276.102 34.2273 276.368 35.2959 276.9 36.0426C277.441 36.7893 278.183 37.1626 279.126 37.1626C279.63 37.1626 280.027 37.1019 280.316 36.9806C280.615 36.8499 280.867 36.7099 281.072 36.5606C281.277 36.4019 281.464 36.2573 281.632 36.1266C281.809 35.9959 282.029 35.9306 282.29 35.9306C282.635 35.9306 282.897 36.0566 283.074 36.3086L284.334 37.8626C283.886 38.3759 283.415 38.7959 282.92 39.1226C282.425 39.4399 281.917 39.6919 281.394 39.8786C280.881 40.0559 280.363 40.1773 279.84 40.2426C279.317 40.3173 278.809 40.3546 278.314 40.3546C277.427 40.3546 276.578 40.1866 275.766 39.8506C274.963 39.5146 274.254 39.0293 273.638 38.3946C273.031 37.7506 272.546 36.9619 272.182 36.0286C271.827 35.0953 271.65 34.0313 271.65 32.8366C271.65 31.7913 271.804 30.8159 272.112 29.9106C272.429 28.9959 272.891 28.2073 273.498 27.5446C274.114 26.8726 274.87 26.3453 275.766 25.9626C276.671 25.5799 277.717 25.3886 278.902 25.3886C280.041 25.3886 281.039 25.5706 281.898 25.9346C282.757 26.2986 283.531 26.8306 284.222 27.5306L283.074 29.0566ZM286.219 40.1306V19.1726H290.559V26.8866C291.082 26.4386 291.646 26.0793 292.253 25.8086C292.869 25.5286 293.602 25.3886 294.451 25.3886C295.244 25.3886 295.944 25.5286 296.551 25.8086C297.167 26.0793 297.685 26.4619 298.105 26.9566C298.525 27.4419 298.842 28.0253 299.057 28.7066C299.272 29.3786 299.379 30.1113 299.379 30.9046V40.1306H295.039V30.9046C295.039 30.1953 294.876 29.6446 294.549 29.2526C294.222 28.8513 293.742 28.6506 293.107 28.6506C292.631 28.6506 292.183 28.7533 291.763 28.9586C291.343 29.1639 290.942 29.4393 290.559 29.7846V40.1306H286.219Z" fill="#1C313D"/>
<path d="M84.565 67H83.8935C83.7462 67 83.6272 66.9773 83.5365 66.932C83.4458 66.8867 83.3863 66.7903 83.358 66.643L83.188 65.844C82.9613 66.048 82.7403 66.2322 82.525 66.3965C82.3097 66.5552 82.083 66.6912 81.845 66.8045C81.607 66.9122 81.352 66.9943 81.08 67.051C80.8137 67.1077 80.5162 67.136 80.1875 67.136C79.8532 67.136 79.5387 67.0907 79.244 67C78.955 66.9037 78.7028 66.762 78.4875 66.575C78.2722 66.388 78.0993 66.1528 77.969 65.8695C77.8443 65.5805 77.782 65.2405 77.782 64.8495C77.782 64.5095 77.8755 64.1837 78.0625 63.872C78.2495 63.5547 78.5498 63.2742 78.9635 63.0305C79.3828 62.7868 79.9297 62.5885 80.604 62.4355C81.2783 62.2768 82.1028 62.1862 83.0775 62.1635V61.492C83.0775 60.8233 82.933 60.319 82.644 59.979C82.3607 59.6333 81.9385 59.4605 81.3775 59.4605C81.0092 59.4605 80.6975 59.5087 80.4425 59.605C80.1932 59.6957 79.975 59.8005 79.788 59.9195C79.6067 60.0328 79.448 60.1377 79.312 60.234C79.1817 60.3247 79.0513 60.37 78.921 60.37C78.819 60.37 78.7283 60.3445 78.649 60.2935C78.5753 60.2368 78.5158 60.1688 78.4705 60.0895L78.1985 59.605C78.6745 59.146 79.1873 58.8032 79.737 58.5765C80.2867 58.3498 80.8958 58.2365 81.5645 58.2365C82.0462 58.2365 82.474 58.3158 82.848 58.4745C83.222 58.6332 83.5365 58.8542 83.7915 59.1375C84.0465 59.4208 84.2392 59.7637 84.3695 60.166C84.4998 60.5683 84.565 61.0103 84.565 61.492V67ZM80.638 66.0735C80.9043 66.0735 81.148 66.048 81.369 65.997C81.59 65.9403 81.7968 65.8638 81.9895 65.7675C82.1878 65.6655 82.3748 65.5437 82.5505 65.402C82.7318 65.2603 82.9075 65.0988 83.0775 64.9175V63.124C82.3805 63.1467 81.7883 63.2033 81.301 63.294C80.8137 63.379 80.417 63.4923 80.111 63.634C79.805 63.7757 79.5812 63.9428 79.4395 64.1355C79.3035 64.3282 79.2355 64.5435 79.2355 64.7815C79.2355 65.0082 79.2723 65.2037 79.346 65.368C79.4197 65.5323 79.5188 65.6683 79.6435 65.776C79.7682 65.878 79.9155 65.9545 80.0855 66.0055C80.2555 66.0508 80.4397 66.0735 80.638 66.0735ZM95.0743 59.809C95.0063 59.9337 94.9015 59.996 94.7598 59.996C94.6748 59.996 94.5785 59.9648 94.4708 59.9025C94.3632 59.8402 94.23 59.7722 94.0713 59.6985C93.9183 59.6192 93.7342 59.5483 93.5188 59.486C93.3035 59.418 93.0485 59.384 92.7538 59.384C92.4988 59.384 92.2693 59.418 92.0653 59.486C91.8613 59.5483 91.6857 59.6362 91.5383 59.7495C91.3967 59.8628 91.2862 59.996 91.2068 60.149C91.1332 60.2963 91.0963 60.4578 91.0963 60.6335C91.0963 60.8545 91.1587 61.0387 91.2833 61.186C91.4137 61.3333 91.5837 61.4608 91.7933 61.5685C92.003 61.6762 92.241 61.7725 92.5073 61.8575C92.7737 61.9368 93.0457 62.0247 93.3233 62.121C93.6067 62.2117 93.8815 62.3137 94.1478 62.427C94.4142 62.5403 94.6522 62.682 94.8618 62.852C95.0715 63.022 95.2387 63.2317 95.3633 63.481C95.4937 63.7247 95.5588 64.0193 95.5588 64.365C95.5588 64.7617 95.488 65.13 95.3463 65.47C95.2047 65.8043 94.995 66.0962 94.7173 66.3455C94.4397 66.5892 94.0997 66.7818 93.6973 66.9235C93.295 67.0652 92.8303 67.136 92.3033 67.136C91.7027 67.136 91.1587 67.0397 90.6713 66.847C90.184 66.6487 89.7703 66.3965 89.4303 66.0905L89.7873 65.5125C89.8327 65.4388 89.8865 65.3822 89.9488 65.3425C90.0112 65.3028 90.0933 65.283 90.1953 65.283C90.2973 65.283 90.405 65.3227 90.5183 65.402C90.6317 65.4813 90.7677 65.5692 90.9263 65.6655C91.0907 65.7618 91.2862 65.8497 91.5128 65.929C91.7452 66.0083 92.0342 66.048 92.3798 66.048C92.6745 66.048 92.9323 66.0112 93.1533 65.9375C93.3743 65.8582 93.5585 65.7533 93.7058 65.623C93.8532 65.4927 93.9608 65.3425 94.0288 65.1725C94.1025 65.0025 94.1393 64.8212 94.1393 64.6285C94.1393 64.3905 94.0742 64.195 93.9438 64.042C93.8192 63.8833 93.652 63.7502 93.4423 63.6425C93.2327 63.5292 92.9918 63.4328 92.7198 63.3535C92.4535 63.2685 92.1787 63.1807 91.8953 63.09C91.6177 62.9993 91.3428 62.8973 91.0708 62.784C90.8045 62.665 90.5665 62.5177 90.3568 62.342C90.1472 62.1663 89.9772 61.951 89.8468 61.696C89.7222 61.4353 89.6598 61.1208 89.6598 60.7525C89.6598 60.4238 89.7278 60.1093 89.8638 59.809C89.9998 59.503 90.1982 59.2367 90.4588 59.01C90.7195 58.7777 91.0397 58.5935 91.4193 58.4575C91.799 58.3215 92.2325 58.2535 92.7198 58.2535C93.2865 58.2535 93.7937 58.3442 94.2413 58.5255C94.6947 58.7012 95.0857 58.9448 95.4143 59.2565L95.0743 59.809ZM100.924 58.2535C101.44 58.2535 101.916 58.3413 102.352 58.517C102.788 58.687 103.165 58.9363 103.482 59.265C103.8 59.588 104.046 59.9903 104.222 60.472C104.403 60.948 104.494 61.492 104.494 62.104C104.494 62.342 104.468 62.5007 104.417 62.58C104.366 62.6593 104.27 62.699 104.128 62.699H98.3994C98.4107 63.243 98.4844 63.7162 98.6204 64.1185C98.7564 64.5208 98.9434 64.858 99.1814 65.13C99.4194 65.3963 99.7027 65.5975 100.031 65.7335C100.36 65.8638 100.728 65.929 101.136 65.929C101.516 65.929 101.842 65.8865 102.114 65.8015C102.392 65.7108 102.63 65.6145 102.828 65.5125C103.026 65.4105 103.191 65.317 103.321 65.232C103.457 65.1413 103.573 65.096 103.669 65.096C103.794 65.096 103.89 65.1442 103.958 65.2405L104.383 65.793C104.196 66.0197 103.973 66.218 103.712 66.388C103.451 66.5523 103.171 66.6883 102.87 66.796C102.576 66.9037 102.27 66.983 101.952 67.034C101.635 67.0907 101.321 67.119 101.009 67.119C100.414 67.119 99.8642 67.0198 99.3599 66.8215C98.8612 66.6175 98.4277 66.3228 98.0594 65.9375C97.6967 65.5465 97.4134 65.0648 97.2094 64.4925C97.0054 63.9202 96.9034 63.2628 96.9034 62.5205C96.9034 61.9198 96.9941 61.3588 97.1754 60.8375C97.3624 60.3162 97.6287 59.8657 97.9744 59.486C98.3201 59.1007 98.7422 58.8003 99.2409 58.585C99.7396 58.364 100.301 58.2535 100.924 58.2535ZM100.958 59.367C100.227 59.367 99.6517 59.5795 99.2324 60.0045C98.8131 60.4238 98.5524 61.0075 98.4504 61.7555H103.134C103.134 61.4042 103.086 61.084 102.989 60.795C102.893 60.5003 102.751 60.2482 102.564 60.0385C102.377 59.8232 102.148 59.6588 101.876 59.5455C101.61 59.4265 101.304 59.367 100.958 59.367ZM106.43 67V58.3895H107.297C107.462 58.3895 107.575 58.4207 107.637 58.483C107.7 58.5453 107.742 58.653 107.765 58.806L107.867 60.149C108.162 59.5483 108.524 59.0808 108.955 58.7465C109.391 58.4065 109.901 58.2365 110.485 58.2365C110.723 58.2365 110.938 58.2648 111.131 58.3215C111.324 58.3725 111.502 58.4462 111.666 58.5425L111.471 59.673C111.431 59.8147 111.343 59.8855 111.207 59.8855C111.128 59.8855 111.006 59.86 110.842 59.809C110.678 59.7523 110.448 59.724 110.153 59.724C109.626 59.724 109.184 59.877 108.827 60.183C108.476 60.489 108.181 60.9338 107.943 61.5175V67H106.43ZM112.199 58.3895H113.44C113.559 58.3895 113.658 58.4207 113.737 58.483C113.817 58.5453 113.873 58.619 113.907 58.704L116.092 64.246C116.171 64.45 116.234 64.654 116.279 64.858C116.324 65.062 116.367 65.2632 116.406 65.4615C116.452 65.2632 116.5 65.062 116.551 64.858C116.602 64.654 116.667 64.45 116.746 64.246L118.956 58.704C118.99 58.6133 119.044 58.5397 119.118 58.483C119.197 58.4207 119.294 58.3895 119.407 58.3895H120.588L117.078 67H115.709L112.199 58.3895ZM123.669 58.3895V67H122.156V58.3895H123.669ZM124.009 55.6865C124.009 55.8338 123.978 55.9727 123.916 56.103C123.859 56.2277 123.78 56.341 123.678 56.443C123.581 56.5393 123.468 56.6158 123.338 56.6725C123.207 56.7292 123.068 56.7575 122.921 56.7575C122.774 56.7575 122.635 56.7292 122.505 56.6725C122.38 56.6158 122.267 56.5393 122.165 56.443C122.068 56.341 121.992 56.2277 121.935 56.103C121.878 55.9727 121.85 55.8338 121.85 55.6865C121.85 55.5392 121.878 55.4003 121.935 55.27C121.992 55.134 122.068 55.0178 122.165 54.9215C122.267 54.8195 122.38 54.7402 122.505 54.6835C122.635 54.6268 122.774 54.5985 122.921 54.5985C123.068 54.5985 123.207 54.6268 123.338 54.6835C123.468 54.7402 123.581 54.8195 123.678 54.9215C123.78 55.0178 123.859 55.134 123.916 55.27C123.978 55.4003 124.009 55.5392 124.009 55.6865ZM132.209 59.9195C132.164 59.9818 132.119 60.03 132.073 60.064C132.028 60.098 131.963 60.115 131.878 60.115C131.793 60.115 131.699 60.081 131.597 60.013C131.501 59.9393 131.376 59.86 131.223 59.775C131.07 59.69 130.883 59.6135 130.662 59.5455C130.447 59.4718 130.181 59.435 129.863 59.435C129.444 59.435 129.073 59.5115 128.75 59.6645C128.427 59.8118 128.155 60.0272 127.934 60.3105C127.718 60.5938 127.554 60.9367 127.441 61.339C127.333 61.7413 127.279 62.1918 127.279 62.6905C127.279 63.2118 127.339 63.6765 127.458 64.0845C127.577 64.4868 127.744 64.8268 127.959 65.1045C128.175 65.3765 128.435 65.5862 128.741 65.7335C129.053 65.8752 129.401 65.946 129.787 65.946C130.155 65.946 130.458 65.9035 130.696 65.8185C130.934 65.7278 131.133 65.6287 131.291 65.521C131.45 65.4133 131.58 65.317 131.682 65.232C131.784 65.1413 131.886 65.096 131.988 65.096C132.119 65.096 132.215 65.1442 132.277 65.2405L132.702 65.793C132.328 66.252 131.861 66.5892 131.3 66.8045C130.739 67.0142 130.147 67.119 129.523 67.119C128.985 67.119 128.483 67.0198 128.019 66.8215C127.56 66.6232 127.16 66.337 126.82 65.963C126.48 65.5833 126.211 65.1187 126.013 64.569C125.82 64.0193 125.724 63.3932 125.724 62.6905C125.724 62.0502 125.812 61.458 125.987 60.914C126.169 60.37 126.429 59.9025 126.769 59.5115C127.115 59.1148 127.54 58.806 128.044 58.585C128.549 58.364 129.127 58.2535 129.778 58.2535C130.379 58.2535 130.912 58.3527 131.376 58.551C131.841 58.7437 132.252 59.0185 132.609 59.3755L132.209 59.9195ZM137.68 58.2535C138.195 58.2535 138.671 58.3413 139.108 58.517C139.544 58.687 139.921 58.9363 140.238 59.265C140.556 59.588 140.802 59.9903 140.978 60.472C141.159 60.948 141.25 61.492 141.25 62.104C141.25 62.342 141.224 62.5007 141.173 62.58C141.122 62.6593 141.026 62.699 140.884 62.699H135.155C135.167 63.243 135.24 63.7162 135.376 64.1185C135.512 64.5208 135.699 64.858 135.937 65.13C136.175 65.3963 136.459 65.5975 136.787 65.7335C137.116 65.8638 137.484 65.929 137.892 65.929C138.272 65.929 138.598 65.8865 138.87 65.8015C139.147 65.7108 139.385 65.6145 139.584 65.5125C139.782 65.4105 139.946 65.317 140.077 65.232C140.213 65.1413 140.329 65.096 140.425 65.096C140.55 65.096 140.646 65.1442 140.714 65.2405L141.139 65.793C140.952 66.0197 140.728 66.218 140.468 66.388C140.207 66.5523 139.927 66.6883 139.626 66.796C139.332 66.9037 139.026 66.983 138.708 67.034C138.391 67.0907 138.076 67.119 137.765 67.119C137.17 67.119 136.62 67.0198 136.116 66.8215C135.617 66.6175 135.184 66.3228 134.815 65.9375C134.453 65.5465 134.169 65.0648 133.965 64.4925C133.761 63.9202 133.659 63.2628 133.659 62.5205C133.659 61.9198 133.75 61.3588 133.931 60.8375C134.118 60.3162 134.385 59.8657 134.73 59.486C135.076 59.1007 135.498 58.8003 135.997 58.585C136.495 58.364 137.056 58.2535 137.68 58.2535ZM137.714 59.367C136.983 59.367 136.408 59.5795 135.988 60.0045C135.569 60.4238 135.308 61.0075 135.206 61.7555H139.89C139.89 61.4042 139.842 61.084 139.745 60.795C139.649 60.5003 139.507 60.2482 139.32 60.0385C139.133 59.8232 138.904 59.6588 138.632 59.5455C138.365 59.4265 138.059 59.367 137.714 59.367ZM146.524 67V54.4795H148.046V59.6305C148.403 59.2168 148.811 58.8853 149.27 58.636C149.735 58.381 150.264 58.2535 150.859 58.2535C151.358 58.2535 151.809 58.347 152.211 58.534C152.613 58.721 152.956 59.0015 153.239 59.3755C153.523 59.7438 153.741 60.2028 153.894 60.7525C154.047 61.2965 154.123 61.9255 154.123 62.6395C154.123 63.2742 154.038 63.8663 153.868 64.416C153.698 64.96 153.452 65.4332 153.129 65.8355C152.812 66.2322 152.421 66.5467 151.956 66.779C151.497 67.0057 150.978 67.119 150.4 67.119C149.845 67.119 149.372 67.0113 148.981 66.796C148.596 66.5807 148.258 66.2803 147.969 65.895L147.893 66.677C147.848 66.8923 147.717 67 147.502 67H146.524ZM150.366 59.4605C149.873 59.4605 149.44 59.5738 149.066 59.8005C148.698 60.0272 148.358 60.3473 148.046 60.761V64.926C148.318 65.3 148.618 65.5635 148.947 65.7165C149.281 65.8695 149.652 65.946 150.06 65.946C150.865 65.946 151.483 65.6598 151.913 65.0875C152.344 64.5152 152.559 63.6992 152.559 62.6395C152.559 62.0785 152.508 61.5968 152.406 61.1945C152.31 60.7922 152.168 60.4635 151.981 60.2085C151.794 59.9478 151.565 59.758 151.293 59.639C151.021 59.52 150.712 59.4605 150.366 59.4605ZM158.278 69.5415C158.227 69.6548 158.162 69.7455 158.083 69.8135C158.009 69.8815 157.893 69.9155 157.734 69.9155H156.612L158.185 66.4985L154.632 58.3895H155.941C156.071 58.3895 156.173 58.4235 156.247 58.4915C156.32 58.5538 156.374 58.6247 156.408 58.704L158.712 64.127C158.763 64.2517 158.805 64.3763 158.839 64.501C158.879 64.6257 158.913 64.7532 158.941 64.8835C158.981 64.7532 159.021 64.6257 159.06 64.501C159.1 64.3763 159.145 64.2488 159.196 64.1185L161.432 58.704C161.466 58.6133 161.522 58.5397 161.602 58.483C161.687 58.4207 161.777 58.3895 161.874 58.3895H163.081L158.278 69.5415Z" fill="#6A6A6A"/>
<path d="M182.203 53.5447L187.385 58.7957L190.32 67.9634L182.203 70.0455L174.085 67.9634L177.02 58.7957L182.203 53.5447Z" fill="white"/>
<path d="M189.366 60.1248C189.395 58.4304 189.205 56.7325 188.784 55.0831C187.588 54.7491 186.362 54.5518 185.132 54.4895C186.886 56.0731 188.319 57.9925 189.366 60.1248Z" fill="#223949"/>
<path d="M178.016 55.6941C175.83 56.5802 173.781 57.944 172.017 59.7907C172.012 59.7977 172.005 59.8029 172 59.8098C172.367 61.229 172.903 62.6101 173.603 63.922C174.38 60.8326 175.903 57.996 178.016 55.6941Z" fill="#86C2E9"/>
<path d="M179.227 54.4895C177.997 54.5518 176.771 54.7474 175.574 55.0831C175.152 56.7343 174.959 58.4356 174.988 60.1334C176.036 57.9977 177.471 56.0766 179.227 54.4895Z" fill="#F05F4B"/>
<path d="M186.344 55.6924C188.447 57.9839 189.969 60.8084 190.749 63.8822C191.439 62.5703 191.966 61.1875 192.323 59.7683C190.564 57.932 188.522 56.5751 186.344 55.6924Z" fill="#F05F4B"/>
<path d="M189.366 60.1248C189.395 58.4304 189.205 56.7325 188.784 55.0831C187.586 54.7491 186.362 54.5518 185.13 54.4895C186.886 56.0731 188.319 57.9925 189.366 60.1248Z" fill="#86C2E9"/>
<path d="M182.18 52.9128C176.992 56.0559 173.501 61.9282 173.501 68.6556C173.501 68.6643 173.501 68.6729 173.501 68.6816C176.043 70.2115 178.991 71.0856 182.134 71.0856C185.315 71.0856 188.295 70.189 190.86 68.6245C190.849 61.9109 187.361 56.0507 182.18 52.9128ZM183.958 68.4514V64.237C183.958 63.2592 183.408 62.6552 182.502 62.6552C181.444 62.669 180.799 63.5032 180.799 64.6403V68.4514H178.682V57.7779H180.799V62.0788C181.321 61.1148 182.199 60.6406 183.354 60.625C185.016 60.625 186.075 61.7759 186.075 63.588V68.4497H183.958V68.4514Z" fill="#223949"/>
<path d="M206.684 66.8744V63.0605H202.623V66.8722H200.13V57.062H202.623V61.098H206.684V57.062H209.178V66.8722H206.684V66.8744Z" fill="#223949"/>
<path d="M221.096 61.9548C221.096 64.8141 218.827 66.9875 215.788 66.9875C212.762 66.9875 210.493 64.8297 210.493 61.9548C210.493 59.0954 212.762 56.9797 215.788 56.9797C218.827 56.9775 221.096 59.1087 221.096 61.9548ZM213.044 61.9681C213.044 63.622 214.319 64.8985 215.816 64.8985C217.329 64.8985 218.534 63.622 218.534 61.9681C218.534 60.3142 217.329 59.0665 215.816 59.0665C214.304 59.0665 213.044 60.3142 213.044 61.9681Z" fill="#223949"/>
<path d="M230.982 66.8743L230.969 60.4963L228.615 65.8931H226.992L224.638 60.4963V66.8743H222.411V57.0486H225.142L227.803 62.8939L230.465 57.0486H233.182V66.8743H230.982Z" fill="#223949"/>
<path d="M237.647 59.0245V60.9737H242.326V62.9361H237.647V64.9119H242.982V66.8744H235.154V57.062H242.829V59.0245H237.647Z" fill="#223949"/>
<path d="M252.505 65.0651L251.79 66.8722H249.229L253.459 57.062H256.021L260.151 66.8722H257.489L256.788 65.0651H252.505ZM254.663 59.544L253.235 63.1737H256.063L254.663 59.544Z" fill="#F05F4B"/>
<path d="M268.653 58.0432L267.715 59.9923C266.679 59.3885 265.377 58.9689 264.578 58.9689C263.935 58.9689 263.5 59.2064 263.5 59.6837C263.5 61.3798 268.682 60.4119 268.682 63.9595C268.682 65.922 266.945 66.9587 264.76 66.9587C263.121 66.9587 261.442 66.3415 260.279 65.3892L261.246 63.4688C262.256 64.3524 263.766 64.9407 264.789 64.9407C265.574 64.9407 266.064 64.6455 266.064 64.086C266.064 62.3477 260.883 63.3845 260.883 59.9102C260.883 58.1031 262.438 56.9531 264.789 56.9531C266.202 56.9509 267.644 57.3838 268.653 58.0432Z" fill="#F05F4B"/>
<path d="M272.224 65.0651L271.51 66.8722H268.948L273.178 57.062H275.74L279.87 66.8722H277.208L276.507 65.0651H272.224ZM274.38 59.544L272.952 63.1737H275.78L274.38 59.544Z" fill="#F05F4B"/>
<path d="M285.052 57.062C287.558 57.062 289 58.2963 289 60.483C289 62.7807 287.558 64.1127 285.052 64.1127H283.273V66.8744H280.78V57.062H285.052ZM283.273 62.1503H284.925C286.017 62.1503 286.649 61.6041 286.649 60.5674C286.649 59.544 286.019 59.0267 284.925 59.0267H283.273V62.1503Z" fill="#F05F4B"/>
<path d="M245.6 65.973C247.365 64.3613 248.266 63.127 249.024 61.8283C248 60.3675 246.82 59.2153 245.509 58.0254C245.852 61.351 245.91 62.5653 245.6 65.973Z" fill="#86C2E9"/>
<defs>
<clipPath id="clip0_915_6557">
<rect width="60" height="70.8197" fill="white" transform="translate(2 4.59009)"/>
</clipPath>
</defs>
</svg>
